<svg width="571" height="571" viewBox="0 0 571 571" fill="none" xmlns="http://www.w3.org/2000/svg">
<path d="M571 285.5C571 443.177 443.177 571 285.5 571C127.823 571 0 443.177 0 285.5C0 127.823 127.823 0 285.5 0C443.177 0 571 127.823 571 285.5Z" fill="#00AEDA"/>
<path d="M269 368L261 368L261 323L269 323L269 368Z" fill="white"/>
<path d="M306 323V331H261V323H306Z" fill="white"/>
<path d="M306 360V368H261V360H306Z" fill="white"/>
<path d="M343 368L335 368L335 323L343 323L343 368Z" fill="white"/>
<path d="M343 360V368H298V360H343Z" fill="white"/>
<path d="M306 331L298 331L298 286L306 286L306 331Z" fill="white"/>
<path d="M343 286V294H298V286H343Z" fill="white"/>
<path d="M380 331L372 331L372 286L380 286L380 331Z" fill="white"/>
<path d="M380 286V294H335V286H380Z" fill="white"/>
<path d="M380 323V331H335V323H380Z" fill="white"/>
<path d="M195 368L187 368L187 323L195 323L195 368Z" fill="white"/>
<path d="M232 323V331H187V323H232Z" fill="white"/>
<path d="M232 360V368H187V360H232Z" fill="white"/>
<path d="M269 368L261 368L261 323L269 323L269 368Z" fill="white"/>
<path d="M269 360V368H224V360H269Z" fill="white"/>
<path d="M232 331L224 331L224 286L232 286L232 331Z" fill="white"/>
<path d="M269 286V294H224V286H269Z" fill="white"/>
<path d="M306 331L298 331L298 286L306 286L306 331Z" fill="white"/>
<path d="M306 286V294H261V286H306Z" fill="white"/>
<path d="M306 323V331H261V323H306Z" fill="white"/>
<path d="M158 257L150 257L150 212L158 212L158 257Z" fill="white"/>
<path d="M195 212V220H150V212H195Z" fill="white"/>
<path d="M232 257L224 257L224 212L232 212L232 257Z" fill="white"/>
<path d="M232 212V220H187V212H232Z" fill="white"/>
<path d="M232 294L224 294L224 249L232 249L232 294Z" fill="white"/>
<path d="M232 286V294H187V286H232Z" fill="white"/>
<path d="M158 294L150 294L150 249L158 249L158 294Z" fill="white"/>
<path d="M195 286V294H150V286H195Z" fill="white"/>
<path d="M343 257L335 257L335 212L343 212L343 257Z" fill="white"/>
<path d="M380 212V220H335V212H380Z" fill="white"/>
<path d="M380 249V257H335V249H380Z" fill="white"/>
<path d="M380 294L372 294L372 249L380 249L380 294Z" fill="white"/>
<path d="M417 294L409 294L409 249L417 249L417 294Z" fill="white"/>
<path d="M417 286V294H372V286H417Z" fill="white"/>
<path d="M232 294L224 294L224 249L232 249L232 294Z" fill="white"/>
<path d="M269 249V257H224V249H269Z" fill="white"/>
<path d="M269 286V294H224V286H269Z" fill="white"/>
<path d="M306 249V257H261V249H306Z" fill="white"/>
<path d="M306 286V294H261V286H306Z" fill="white"/>
<path d="M343 249V257H298V249H343Z" fill="white"/>
<path d="M343 286V294H298V286H343Z" fill="white"/>
<path d="M380 294L372 294L372 249L380 249L380 294Z" fill="white"/>
<path d="M380 249V257H335V249H380Z" fill="white"/>
<path d="M380 286V294H335V286H380Z" fill="white"/>
<path d="M158 220L150 220L150 175L158 175L158 220Z" fill="white"/>
<path d="M195 175V183H150V175H195Z" fill="white"/>
<path d="M195 212V220H150V212H195Z" fill="white"/>
<path d="M232 175V183H187V175H232Z" fill="white"/>
<path d="M232 212V220H187V212H232Z" fill="white"/>
<path d="M269 220L261 220L261 175L269 175L269 220Z" fill="white"/>
<path d="M269 175V183H224V175H269Z" fill="white"/>
<path d="M232 257L224 257L224 212L232 212L232 257Z" fill="white"/>
<path d="M269 257L261 257L261 212L269 212L269 257Z" fill="white"/>
<path d="M269 249V257H224V249H269Z" fill="white"/>
<path d="M195 397L195 405L150 405L150 397L195 397Z" fill="white"/>
<path d="M150 360H158V405H150V360Z" fill="white"/>
<path d="M187 360H195V405H187V360Z" fill="white"/>
<path d="M150 323H158V368H150V323Z" fill="white"/>
<path d="M187 323H195V368H187V323Z" fill="white"/>
<path d="M195 286L195 294L150 294L150 286L195 286Z" fill="white"/>
<path d="M150 286H158V331H150V286Z" fill="white"/>
<path d="M232 323L232 331L187 331L187 323L232 323Z" fill="white"/>
<path d="M232 286L232 294L187 294L187 286L232 286Z" fill="white"/>
<path d="M224 286H232V331H224V286Z" fill="white"/>
<path d="M269 220L261 220L261 175L269 175L269 220Z" fill="white"/>
<path d="M285 175V183H240V175H285Z" fill="white"/>
<path d="M343 236L335 236L335 191L343 191L343 236Z" fill="white"/>
<path d="M343 257L335 257L335 212L343 212L343 257Z" fill="white"/>
<path d="M343 249V257H298V249H343Z" fill="white"/>
<path d="M269 257L261 257L261 212L269 212L269 257Z" fill="white"/>
<path d="M306 249V257H261V249H306Z" fill="white"/>
<path d="M137.921 399.08V173.8V163.983L147.801 163.599C278.219 158.542 367.07 187.484 407.916 226.653C424.946 242.983 434.082 261.294 434.943 280.064C435.807 298.911 428.285 317.715 411.995 334.931C374.622 374.43 288.361 406.358 148.361 409.28L137.921 409.498V399.08ZM158.401 183.685V388.602C286.144 384.544 364.028 355.985 397.195 320.932C409.466 307.963 415.154 294.275 414.543 280.944C413.928 267.538 406.902 253.979 393.756 241.373C357.403 206.513 277.352 180.598 158.401 183.685Z" fill="white"/>
<path d="M467.894 275.913H547.52V296.394H467.894V275.913Z" fill="white"/>
<path d="M56 212.056H127.68V232.536H56V212.056Z" fill="white"/>
<path d="M56 339.77H127.68V360.251H56V339.77Z" fill="white"/>
<path d="M446.267 257.247C455.065 257.247 463.032 260.814 468.799 266.581C474.566 272.349 478.134 280.315 478.134 289.114C478.134 297.912 474.566 305.879 468.799 311.646C463.032 317.413 455.065 320.981 446.267 320.981C442.653 320.981 439.179 320.379 435.941 319.27C439.155 313.186 441.642 306.781 443.233 300.092C444.199 300.358 445.216 300.5 446.267 300.5C449.412 300.5 452.259 299.226 454.319 297.166C456.379 295.106 457.653 292.259 457.653 289.114C457.653 285.969 456.379 283.121 454.319 281.062C452.259 279.002 449.412 277.727 446.267 277.727C445.861 277.727 445.46 277.749 445.065 277.79C444.574 270.796 443.115 264.091 440.859 257.704C442.617 257.404 444.424 257.247 446.267 257.247Z" fill="white"/>
</svg>
